<svg width="20" height="20" viewBox="0 0 20 20" fill="none" xmlns="http://www.w3.org/2000/svg">
<path d="M12.6999 10C12.6999 8.5 11.4999 7.3 9.99993 7.3C8.49993 7.3 7.29993 8.5 7.29993 10C7.29993 11.5 8.49993 12.7 9.99993 12.7C11.4999 12.7 12.6999 11.5 12.6999 10ZM14.0999 10C14.0999 12.3 12.2999 14.1 9.99993 14.1C7.69993 14.1 5.89993 12.3 5.89993 10C5.89993 7.7 7.69993 5.9 9.99993 5.9C12.2999 5.9 14.0999 7.7 14.0999 10ZM15.1999 5.7C15.1999 6.3 14.7999 6.7 14.1999 6.7C13.5999 6.7 13.1999 6.3 13.1999 5.7C13.1999 5.1 13.5999 4.7 14.1999 4.7C14.7999 4.7 15.1999 5.2 15.1999 5.7ZM9.99993 3.4C8.79993 3.4 6.29993 3.3 5.29993 3.7C4.59993 4 3.99993 4.6 3.79993 5.3C3.39993 6.3 3.49993 8.8 3.49993 10C3.49993 11.2 3.39993 13.7 3.79993 14.7C3.99993 15.4 4.59993 16 5.29993 16.2C6.29993 16.6 8.89993 16.5 9.99993 16.5C11.0999 16.5 13.6999 16.6 14.6999 16.2C15.3999 15.9 15.8999 15.4 16.1999 14.7C16.5999 13.6 16.4999 11.1 16.4999 10C16.4999 8.9 16.5999 6.3 16.1999 5.3C15.9999 4.6 15.3999 4 14.6999 3.8C13.6999 3.3 11.1999 3.4 9.99993 3.4ZM17.9999 10V13.3C17.9999 14.5 17.5999 15.7 16.6999 16.7C15.7999 17.6 14.5999 18 13.2999 18H6.69993C5.49993 18 4.29993 17.6 3.29993 16.7C2.49993 15.8 1.99993 14.6 1.99993 13.3V10V6.7C1.99993 5.4 2.49993 4.2 3.29993 3.3C4.29993 2.5 5.49993 2 6.69993 2H13.2999C14.4999 2 15.6999 2.4 16.6999 3.3C17.4999 4.2 17.9999 5.4 17.9999 6.7V10Z" fill="white"/>
</svg>
